# xmcd CD database file
#
# Track frame offsets:
#	150
#	42825
#	80900
#	116607
#	158795
#	188041
#	219520
#	255225
#	296823
#	326313
#
# Disc length: 4678 seconds
#
# Revision: 2
# Processed by: cddbd v1.5.2PL0 Copyright (c) Steve Scherf et al.
# Submitted via: CDex 1.51
#
DISCID=8812440a
DTITLE=Jimmy Giuffre Quartet - Live in 1960
DYEAR=1960
DGENRE=Jazz
TTITLE0=The Quiet Time  (Jimmy Giuffre)  ....  {Five Spot, New York, Aout 1960}
TTITLE1=The Crab  (Jim Crab)
TTITLE2=My Funny Valentine  (Rodgers-Hart)
TTITLE3=Wee See  (Thelionious Monk)
TTITLE4=What's New ¿  (Burke-Haggart)
TTITLE5=Two For Timbuctu  (Jimmy Giuffre)  ...  {Olympia, Paris, 23 Février 1960}
TTITLE6=The Boy Next Door  (Blane-Martin)
TTITLE7=Mack The Knife  (Brecht-Weill)
TTITLE8=My Funny Valentine  (Rodgers-Hart)
TTITLE9=Two For Timbuctu  (Jimmy Giuffre)
EXTD=YEAR: 1960
EXTT0=
EXTT1=
EXTT2=
EXTT3=
EXTT4=
EXTT5=
EXTT6=
EXTT7=
EXTT8=
EXTT9=
PLAYORDER=
